<svg width="18" height="17" viewBox="0 0 18 17" fill="none" xmlns="http://www.w3.org/2000/svg">
<path d="M15.7307 2.69519C15.3297 2.30382 14.8531 1.99329 14.3284 1.7814C13.8038 1.56952 13.2412 1.46045 12.6731 1.46045C12.105 1.46045 11.5424 1.56952 11.0177 1.7814C10.4931 1.99329 10.0165 2.30382 9.61551 2.69519L9 3.30158L8.38449 2.69519C7.98346 2.30382 7.50694 1.99329 6.98225 1.7814C6.45756 1.56952 5.89503 1.46045 5.3269 1.46045C4.75878 1.46045 4.19624 1.56952 3.67155 1.7814C3.14686 1.99329 2.67034 2.30382 2.26932 2.69519C0.574655 4.34333 0.470737 7.1265 2.60505 9.24108L9 15.4604L15.3949 9.24108C17.5293 7.1265 17.4253 4.34333 15.7307 2.69519Z" stroke="black" stroke-width="1.3" stroke-linecap="round" stroke-linejoin="round"/>
</svg>
