<svg width="89" height="70" viewBox="0 0 89 70" fill="none" xmlns="http://www.w3.org/2000/svg">
<mask id="path-1-inside-1_5357_502" fill="white">
<path d="M0 0H88.1755V69.9292H0V0Z"/>
</mask>
<path d="M87.1755 0V69.9292H89.1755V0H87.1755Z" fill="none" mask="url(#path-1-inside-1_5357_502)"/>
<path d="M0 44.9148C1.63656 43.2571 3.12889 41.7648 4.59429 40.2436C4.97891 39.8436 5.41738 39.8225 5.90584 39.8225C10.7777 39.8225 15.4572 39.8225 20.3291 39.8225C21.2503 39.8225 22.0022 39.2397 22.0022 38.2782C22.0022 37.5089 21.2503 36.8436 20.3291 36.8436C16.4829 36.8436 12.704 36.8436 8.8578 36.8436C7.77327 36.8504 6.70314 36.5951 5.73853 36.0993C4.03467 35.2224 3.20196 33.5993 3.62312 31.7243C3.8227 30.8252 4.13477 29.9549 4.55198 29.1339C5.6693 26.9838 7.64625 25.9646 9.87897 25.43C10.9952 25.1711 12.137 25.0382 13.2829 25.0338C18.7925 24.9953 24.3041 25.0165 29.8215 25.0146H30.9177C30.6523 25.3223 30.5042 25.5165 30.3311 25.6896C29.0657 26.9588 27.7753 28.2069 26.533 29.4993C26.3415 29.7094 26.1057 29.8745 25.8426 29.9826C25.5796 30.0906 25.2958 30.139 25.0118 30.1243C20.6874 30.1037 16.3617 30.1037 12.0348 30.1243C11.559 30.1364 11.0864 30.2055 10.6271 30.33C9.85781 30.5223 9.63666 31.1781 9.4732 31.8358C9.37127 32.2666 9.85781 32.8166 10.379 32.8858C11.0125 32.975 11.6509 33.0251 12.2905 33.0358C16.1367 33.0666 19.9829 33.0743 23.8291 33.0993C25.0479 33.1014 26.2398 33.4575 27.26 34.1243C28.6061 35.0012 28.9177 36.3993 28.6388 37.8513C27.8503 41.9436 25.2945 44.1975 21.2483 44.7187C20.0766 44.8568 18.8973 44.9211 17.7175 44.911C12.1098 44.9283 6.50393 44.911 0.896165 44.911L0 44.9148Z" fill="black"/>
<path d="M30.1675 36.8348C29.9329 34.6405 29.2464 32.7963 27.4367 31.4501C27.7521 31.127 28.0137 30.8597 28.2714 30.5962C29.9695 28.8962 31.6733 27.2001 33.3618 25.4923C33.4959 25.3368 33.6622 25.2123 33.8491 25.1273C34.036 25.0423 34.2392 24.9989 34.4445 25C42.2305 25.0141 50.0171 25.0193 57.8044 25.0154C57.9292 25.0267 58.0532 25.046 58.1756 25.0731C57.9833 25.3 57.8275 25.4904 57.6583 25.6616C56.414 26.9097 55.1467 28.1347 53.9332 29.4116C53.7275 29.6485 53.4708 29.8356 53.1823 29.9589C52.8938 30.0821 52.5812 30.1383 52.2678 30.1232C46.212 30.0943 40.1523 30.1078 34.0984 30.1078C33.8426 30.1078 33.5849 30.0866 33.3291 30.1078C32.2579 30.2155 31.5329 31.4713 32.0464 32.4155C32.1926 32.6809 32.558 32.8694 32.8637 32.9924C33.1176 33.0886 33.4407 33.0367 33.7195 33.0367C38.6869 33.0367 43.6542 33.0251 48.6197 33.0559C49.9279 33.0374 51.2354 33.1256 52.5294 33.3194C54.1467 33.5982 55.4948 34.3694 55.8794 36.154C56.0059 36.6502 56.0327 37.1666 55.9582 37.6733C55.2525 41.2598 53.4582 43.606 49.6505 44.508C48.4705 44.7752 47.2641 44.9088 46.0543 44.906C39.9984 44.9445 33.9387 44.9234 27.8867 44.9234C27.6117 44.9234 26.1829 44.8984 25.7925 44.881C28.2714 43.7502 29.1194 41.781 29.656 39.881C35.8657 39.881 41.8753 39.8291 47.962 39.8291C49.1601 39.8291 49.9312 39.4446 49.9312 38.3617C49.9312 37.2117 48.8466 36.8617 47.7428 36.8617C42.2965 36.8489 36.8477 36.8489 31.3964 36.8617L30.1675 36.8348Z" fill="#FF6915"/>
</svg>
