<svg width="17" height="19" viewBox="0 0 17 19" fill="none" xmlns="http://www.w3.org/2000/svg">
<path d="M5.5659 8.55556V3.83333C5.5659 3.08189 5.87498 2.36122 6.42514 1.82986C6.9753 1.29851 7.72147 1 8.49951 1C9.27755 1 10.0237 1.29851 10.5739 1.82986C11.124 2.36122 11.4331 3.08189 11.4331 3.83333V8.55556M2.95597 5.72222H14.044C14.326 5.72219 14.6047 5.78105 14.8609 5.89477C15.1171 6.00849 15.3449 6.17438 15.5285 6.38107C15.7121 6.58776 15.8473 6.83035 15.9248 7.09222C16.0022 7.35409 16.0201 7.62904 15.9773 7.89822L14.7501 15.5973C14.6435 16.2664 14.2925 16.8766 13.7604 17.3173C13.2284 17.758 12.5506 18.0002 11.8497 18H5.14933C4.44859 18 3.77101 17.7577 3.23919 17.317C2.70738 16.8763 2.35646 16.2663 2.24995 15.5973L1.02272 7.89822C0.979863 7.62904 0.997778 7.35409 1.07524 7.09222C1.15271 6.83035 1.28788 6.58776 1.47151 6.38107C1.65514 6.17438 1.88288 6.00849 2.1391 5.89477C2.39533 5.78105 2.67399 5.72219 2.95597 5.72222Z" stroke="white" stroke-width="1.7" stroke-linecap="round" stroke-linejoin="round"/>
</svg>
