<svg width="35" height="38" viewBox="0 0 35 38" fill="none" xmlns="http://www.w3.org/2000/svg">
<path d="M3.78947 27.5263C4.7945 27.5263 5.75837 27.9256 6.46904 28.6362C7.1797 29.3469 7.57895 30.3108 7.57895 31.3158C7.57895 32.3208 7.1797 33.2847 6.46904 33.9954C5.75837 34.706 4.7945 35.1053 3.78947 35.1053C2.78444 35.1053 1.82058 34.706 1.10991 33.9954C0.399247 33.2847 0 32.3208 0 31.3158C0 30.3108 0.399247 29.3469 1.10991 28.6362C1.82058 27.9256 2.78444 27.5263 3.78947 27.5263ZM3.78947 27.5263H11.3684M3.78947 27.5263V1H0M3.78947 4.78947L30.3158 6.68421L28.9573 16.1882M14.2105 19.9474H3.78947M26.5263 37L32.8737 30.7777C33.2629 30.4 33.5725 29.9481 33.7843 29.4488C33.996 28.9494 34.1055 28.4127 34.1064 27.8703C34.1073 27.3279 33.9995 26.7909 33.7894 26.2908C33.5793 25.7908 33.2712 25.3379 32.8832 24.9589C32.0914 24.1846 31.0286 23.7501 29.9212 23.748C28.8137 23.7459 27.7492 24.1763 26.9545 24.9476L26.5301 25.3644L26.1076 24.9476C25.3159 24.1738 24.2535 23.7397 23.1465 23.7376C22.0395 23.7354 20.9755 24.1655 20.1808 24.9362C19.7915 25.3138 19.4817 25.7656 19.2698 26.2648C19.0579 26.7641 18.9482 27.3008 18.9472 27.8432C18.9461 28.3856 19.0537 28.9227 19.2636 29.4228C19.4736 29.9229 19.7816 30.3758 20.1695 30.7549L26.5263 37Z" stroke="#FF6915" stroke-width="1.6" stroke-linecap="round" stroke-linejoin="round"/>
</svg>
